<svg width="20" height="23" viewBox="0 0 20 23" fill="none" xmlns="http://www.w3.org/2000/svg">
<path fill-rule="evenodd" clip-rule="evenodd" d="M7.45702 0.191709C6.4657 0.456445 5.63629 0.947042 4.80822 1.75832C3.99454 2.55556 3.51906 3.36829 3.23706 4.44371C2.98152 5.41824 2.97786 11.5086 3.23231 12.458C4.016 15.3829 6.82305 17.2438 9.82163 16.8263C10.8377 16.6849 12.1544 16.0912 12.9198 15.4296C13.9877 14.5064 14.8812 12.6851 14.8812 11.4317V10.8995H14.1028H13.3243L13.241 11.563C12.7627 15.3656 7.65368 16.5947 5.46536 13.4336C4.70837 12.34 4.61632 11.7268 4.66168 8.0765C4.70069 4.9337 4.70398 4.89846 5.02536 4.21748C5.66653 2.85893 6.80159 1.97413 8.26717 1.69038L9.02916 1.54288V0.771439V0L8.57197 0.00799316C8.32057 0.0123529 7.81875 0.0950675 7.45702 0.191709ZM15.6127 0.24221C15.3999 0.45366 15.3689 0.645853 15.3689 1.75602V3.02763H14.0888C12.9711 3.02763 12.7777 3.05839 12.5648 3.26984C12.3203 3.51265 12.2444 4.05266 12.4168 4.32188C12.5905 4.59339 13.1917 4.7231 14.2754 4.7231H15.3606L15.3952 6.01226C15.4284 7.24499 15.4439 7.31172 15.7505 7.53879C16.0937 7.79299 16.4434 7.75617 16.7702 7.43137C16.9103 7.29222 16.9539 6.94937 16.9539 5.9861V4.7231H18.0432C19.1307 4.7231 19.7321 4.59364 19.906 4.32188C19.9567 4.24279 19.9989 4.0041 20 3.79144C20.0029 3.16823 19.673 3.02763 18.2068 3.02763H16.9539V1.75602C16.9539 0.645853 16.9229 0.45366 16.71 0.24221C16.5759 0.108995 16.329 0 16.1614 0C15.9937 0 15.7469 0.108995 15.6127 0.24221ZM0.208976 9.42549C-0.197744 9.87188 0.0236602 13.1341 0.576072 14.8354C1.30648 17.0849 2.95165 18.7479 5.11826 19.4266C5.62642 19.5858 6.37134 19.7521 6.77367 19.7962C7.176 19.8403 7.65599 19.9045 7.84046 19.939L8.17573 20.0016V21.2635C8.17573 22.3641 8.20694 22.5565 8.41957 22.7677C8.73131 23.0774 9.20509 23.0774 9.51683 22.7677C9.72946 22.5565 9.76067 22.3641 9.76067 21.2635V20.0016L10.0959 19.939C10.2803 19.9045 10.7584 19.8403 11.1583 19.7963C12.8852 19.6062 14.5294 18.8506 15.6432 17.7355C16.4018 16.9759 17.1977 15.6 17.1977 15.0484C17.1977 14.4642 16.6444 14.1371 16.0437 14.3661C15.9346 14.4076 15.7035 14.721 15.5301 15.0624C14.7585 16.5819 13.7621 17.4463 12.2173 17.9363C11.0492 18.3068 8.02467 18.4008 6.58201 18.1115C3.28205 17.4495 1.84768 15.4012 1.62457 11.0319C1.56739 9.91305 1.51131 9.60811 1.32928 9.4273C1.04131 9.14125 0.468662 9.1404 0.208976 9.42549Z" fill="#64845F"/>
</svg>
