<svg width="16" height="16" viewBox="0 0 16 16" fill="none" xmlns="http://www.w3.org/2000/svg">
<path fill-rule="evenodd" clip-rule="evenodd" d="M10.9921 0.0626036C10.8524 0.100473 10.6249 0.189601 10.4865 0.260597C10.2502 0.381841 9.92185 0.702368 5.11743 5.50062L0 10.6115V13.3057V16H2.69423H5.38849L10.4809 10.9002C14.7237 6.65121 15.595 5.76264 15.7034 5.57378C16.079 4.91979 16.0985 4.17897 15.7582 3.48157C15.6176 3.19322 15.5779 3.14925 14.3017 1.86582C13.0265 0.583426 12.7217 0.309764 12.4318 0.186881C11.9776 -0.00560269 11.4209 -0.053654 10.9921 0.0626036ZM12.1689 0.922749C12.3274 0.998417 12.5979 1.25025 13.6768 2.32673C14.8047 3.45207 15.0044 3.66676 15.0822 3.83738C15.2171 4.13329 15.2604 4.41529 15.2133 4.69027C15.1509 5.05491 15.0226 5.26047 14.559 5.73896L14.1405 6.17083L11.9962 4.02439L9.85193 1.87799L10.27 1.4578C10.737 0.988584 10.9595 0.849521 11.3159 0.804155C11.6064 0.767193 11.9405 0.81364 12.1689 0.922749ZM11.464 4.57119L13.6 6.70689L9.40676 10.9001L5.2135 15.0933L3.06136 12.9415L0.909176 10.7896L5.10125 6.61438C7.4069 4.318 9.30113 2.43832 9.31065 2.43731C9.32017 2.43629 10.2892 3.39652 11.464 4.57119ZM2.5282 13.4893L4.27151 15.2329H2.51934H0.767178V13.4893C0.767178 12.5304 0.771154 11.7458 0.776036 11.7458C0.780883 11.7458 1.56937 12.5304 2.5282 13.4893Z" fill="white"/>
</svg>
