<svg width="7" height="13" viewBox="0 0 7 13" fill="none" xmlns="http://www.w3.org/2000/svg">
<path fill-rule="evenodd" clip-rule="evenodd" d="M6.94396 0.442076C6.81461 0.109069 6.25468 -0.114199 5.98986 0.0616413C5.9487 0.0889746 4.5981 1.471 2.98861 3.13272C-0.167165 6.3908 -0.141348 6.35813 0.0924446 6.80324C0.158063 6.9282 1.51842 8.37362 3.11542 10.0153C5.97517 12.9549 6.02303 13 6.28075 13C6.76531 13 7.10186 12.5339 6.94409 12.0815C6.90325 11.9644 5.80719 10.7865 4.25882 9.19552L1.6425 6.50731L4.26 3.8168C5.75991 2.27504 6.90533 1.0449 6.94259 0.935768C7.01881 0.712771 7.019 0.635372 6.94396 0.442076Z" fill="white"/>
</svg>
