<svg width="16" height="16" viewBox="0 0 16 16" fill="none" xmlns="http://www.w3.org/2000/svg">
<path d="M15.8324 7.73418L8.40399 0.170617C8.18057 -0.0568722 7.81943 -0.0568722 7.59601 0.170617L0.167568 7.73418C-0.0558561 7.96167 -0.0558561 8.32938 0.167568 8.55687C0.390993 8.78436 0.752129 8.78436 0.975554 8.55687L8 1.40464L12.5793 6.06729C12.5788 6.08184 12.5713 6.09464 12.5713 6.10918V14.8364H3.42865V9.01825C3.42865 8.6965 3.17266 8.43643 2.85723 8.43643C2.54181 8.43643 2.28582 8.6965 2.28582 9.01825V15.4182C2.28582 15.7399 2.54181 16 2.85723 16H13.1428C13.4588 16 13.7142 15.7399 13.7142 15.4182V7.22277L15.0244 8.55687C15.1359 8.67032 15.2822 8.72734 15.4284 8.72734C15.5747 8.72734 15.721 8.67032 15.8324 8.55687C16.0559 8.32938 16.0559 7.96167 15.8324 7.73418Z" fill="#575339"/>
</svg>
