<svg width="18" height="18" viewBox="0 0 18 18" fill="none" xmlns="http://www.w3.org/2000/svg">
<path d="M6 1H2.70711C2.25435 1 1.82014 1.17986 1.5 1.5V1.5C1.17986 1.82014 1 2.25435 1 2.70711V6" stroke="#575339"/>
<path d="M6 17H2.70711C2.25435 17 1.82014 16.8201 1.5 16.5V16.5C1.17986 16.1799 1 15.7456 1 15.2929V12" stroke="#575339"/>
<path d="M12 1H15.2929C15.7456 1 16.1799 1.17986 16.5 1.5V1.5C16.8201 1.82014 17 2.25435 17 2.70711V6" stroke="#575339"/>
<path d="M12 17H15.2929C15.7456 17 16.1799 16.8201 16.5 16.5V16.5C16.8201 16.1799 17 15.7456 17 15.2929V12" stroke="#575339"/>
</svg>
