<svg width="8" height="14" viewBox="0 0 8 14" fill="none" xmlns="http://www.w3.org/2000/svg">
<path fill-rule="evenodd" clip-rule="evenodd" d="M1.11306 0.0640579C1.1791 0.0984455 2.72569 1.57037 4.54991 3.335C6.90683 5.61494 7.8864 6.58574 7.93479 6.68967C8.02174 6.87627 8.02174 7.12373 7.93479 7.31033C7.8864 7.41426 6.90683 8.38531 4.55167 10.6641C2.72842 12.4283 1.18183 13.9002 1.11481 13.9351C1.04242 13.9727 0.908018 13.9991 0.78379 14C0.381566 14.0029 0.0611248 13.7356 0.0153904 13.359C-0.0303068 12.9829 -0.174914 13.1429 3.10017 9.94464L6.11547 7L3.10017 4.05536C0.651411 1.66401 0.0762324 1.0842 0.0390615 0.969696C-0.11972 0.480648 0.252402 -0.00387847 0.78379 2.3409e-05C0.906858 0.000935064 1.04238 0.0272635 1.11306 0.0640579Z" fill="white"/>
</svg>
