<svg width="13" height="13" viewBox="0 0 13 13" fill="none" xmlns="http://www.w3.org/2000/svg">
<path fill-rule="evenodd" clip-rule="evenodd" d="M5.76849 0.0261861C2.91168 0.385374 0.693379 2.43432 0.0946494 5.26687C-0.0314393 5.8635 -0.0315922 7.1113 0.0944454 7.70894C0.602522 10.1193 2.24295 11.9602 4.53391 12.6912C6.14803 13.2061 7.84683 13.0746 9.38875 12.3152C11.2092 11.4187 12.453 9.79839 12.9054 7.73438C13.0424 7.10906 13.0284 5.8086 12.8775 5.13968C12.2942 2.555 10.2842 0.594832 7.71391 0.104078C7.21746 0.00929506 6.22043 -0.0305921 5.76849 0.0261861ZM7.44965 3.11734C7.43298 3.27821 7.36129 4.3371 7.29032 5.47038C7.21935 6.60365 7.14899 7.62815 7.134 7.7471L7.10672 7.96333H6.50207H5.89743L5.86725 7.64535C5.85068 7.47048 5.78052 6.45738 5.71138 5.39406C5.64224 4.33074 5.57188 3.31769 5.55501 3.14278L5.52431 2.8248H6.50212H7.47989L7.44965 3.11734ZM6.90904 8.77196C7.4058 9.12687 7.37791 9.82047 6.85622 10.0874C6.73319 10.1504 6.5734 10.2019 6.50116 10.2019C6.28176 10.2019 5.93128 9.98999 5.82936 9.79569C5.46318 9.09767 6.28039 8.32282 6.90904 8.77196Z" fill="#F11C1C"/>
</svg>
