<svg width="26" height="23" viewBox="0 0 26 23" fill="none" xmlns="http://www.w3.org/2000/svg">
<path fill-rule="evenodd" clip-rule="evenodd" d="M9.46288 0.280156C8.87 0.475281 8.49468 0.774282 7.59564 1.76717C6.97679 2.45083 6.33004 3.09102 6.15849 3.18994C5.97654 3.29477 5.09709 3.36972 4.04995 3.36972C2.1137 3.36972 1.5094 3.55462 0.835638 4.35302C0.00575575 5.33632 0.0188153 5.1992 0.00412322 13.1076C-0.00953007 20.3942 -0.00849129 20.4222 0.326756 21.1678C0.672986 21.9381 1.26275 22.5139 2.04321 22.8439C2.37445 22.9839 5.2412 23.0213 13.1981 22.9893L23.907 22.9462L24.5504 22.4597C24.9043 22.192 25.3608 21.6527 25.5648 21.2612L25.9359 20.5491L25.981 14.2617C26.0205 8.75141 25.9972 7.9268 25.7921 7.58977C25.5315 7.16148 24.8224 7.06032 24.5508 7.4127C24.4439 7.55125 24.3763 9.73375 24.347 13.9781L24.3034 20.3359L23.8187 20.802L23.334 21.2682H12.9366H2.53918L2.10539 20.8011L1.6716 20.334V13.152V5.97027L2.0628 5.54886C2.44049 5.14215 2.5138 5.12761 4.17758 5.12665C6.59317 5.12553 6.84902 5.02213 8.34925 3.44211C9.04334 2.71099 9.79932 2.03612 10.029 1.94232C10.2852 1.83764 11.8982 1.77164 14.1985 1.77164C17.6446 1.77164 17.9702 1.74783 18.1958 1.47935C18.5379 1.07248 18.5021 0.557103 18.1115 0.262577C17.6344 -0.0974703 10.5667 -0.0830875 9.46288 0.280156ZM21.5067 0.306044C21.3179 0.530574 21.2611 0.918748 21.2611 1.98403V3.36972H19.9551C18.5301 3.36972 18.293 3.48702 18.293 4.19161C18.293 4.8831 18.767 5.12761 20.1069 5.12761H21.2611V6.4612C21.2611 7.891 21.4567 8.32376 22.1031 8.32376C22.6888 8.32376 22.8936 7.83811 22.8936 6.44938V5.15941L24.2412 5.10348C25.3675 5.05681 25.6236 4.99672 25.7995 4.73752C26.0745 4.3324 26.0663 3.93256 25.7769 3.62078C25.5997 3.43013 25.2253 3.36972 24.2187 3.36972H22.8936V1.95622C22.8936 0.789783 22.8461 0.496535 22.6221 0.278238C22.2661 -0.068705 21.8121 -0.0573586 21.5067 0.306044ZM12.188 8.27662C11.9727 8.31242 11.4389 8.57163 11.0017 8.85305C8.95281 10.1715 8.53475 13.1254 10.1222 15.0673C10.957 16.0885 11.9739 16.535 13.2428 16.4372C14.3528 16.3517 14.9516 16.0661 15.691 15.2701C16.4302 14.474 16.6954 13.8291 16.7748 12.6338C16.9568 9.89452 14.7985 7.84418 12.188 8.27662ZM14.2332 10.4172C15.1364 11.0149 15.4525 12.5488 14.8804 13.5589C13.9658 15.1744 11.8524 15.0814 11.0434 13.3898C10.5998 12.4618 10.7031 11.5792 11.3481 10.7882C12.0828 9.88717 13.2125 9.7419 14.2332 10.4172Z" fill="#64845F"/>
</svg>
