<svg width="15" height="15" viewBox="0 0 15 15" fill="none" xmlns="http://www.w3.org/2000/svg">
<path fill-rule="evenodd" clip-rule="evenodd" d="M0.487525 0.0368554C0.310703 0.101138 0.048145 0.390472 0.0102454 0.562762C-0.0103924 0.656767 0.00387573 0.817409 0.0419664 0.919752C0.081968 1.02725 1.46234 2.45725 3.30878 4.30406L6.50642 7.50227L3.30878 10.7005C1.46234 12.5473 0.081968 13.9773 0.0419664 14.0848C-0.0510946 14.3347 0.0116467 14.5784 0.219935 14.7762C0.436568 14.9821 0.662309 15.0393 0.904038 14.9494C1.01468 14.9083 2.41626 13.5581 4.29341 11.6843L7.49417 8.48923L10.6949 11.6806C12.4553 13.4359 13.9632 14.9062 14.0457 14.948C14.4955 15.1762 15.1266 14.6087 14.9778 14.1101C14.9534 14.0288 13.4821 12.5087 11.7081 10.732L8.48255 7.50164L11.6798 4.30374C13.555 2.42829 14.9061 1.02795 14.9473 0.917397C15.0372 0.675861 14.98 0.4503 14.7739 0.23384C14.5759 0.0257173 14.332 -0.0369739 14.0819 0.0560128C13.9744 0.0959825 12.5432 1.47525 10.6949 3.32022L7.49417 6.51531L4.29341 3.32022C2.53296 1.56296 1.01194 0.0952187 0.913338 0.0586223C0.720146 -0.0131067 0.636639 -0.0173709 0.487525 0.0368554Z" fill="black"/>
</svg>
