<svg width="126" height="47" viewBox="0 0 126 47" fill="none" xmlns="http://www.w3.org/2000/svg">
<rect x="70" y="7" width="2" height="33" rx="1" fill="#85A480"/>
<rect x="33" y="12" width="2" height="24" rx="1" fill="#85A480"/>
<rect x="106" y="14" width="2" height="19" rx="1" fill="#85A480"/>
<rect y="18" width="2" height="11" rx="1" fill="#85A480"/>
<rect x="73" y="15" width="2" height="18" rx="1" fill="#85A480"/>
<rect x="36" y="16" width="2" height="15" rx="1" fill="#85A480"/>
<rect x="109" y="19" width="2" height="9" rx="1" fill="#85A480"/>
<rect x="3" y="19" width="2" height="9" rx="1" fill="#85A480"/>
<rect x="76" y="1" width="2" height="46" rx="1" fill="#85A480"/>
<rect x="39" y="12" width="2" height="24" rx="1" fill="#85A480"/>
<rect x="112" y="18" width="2" height="11" rx="1" fill="#85A480"/>
<rect x="18" y="7" width="2" height="33" rx="1" fill="#85A480"/>
<rect x="91" y="8" width="2" height="31" rx="1" fill="#85A480"/>
<rect x="54" y="11" width="2" height="25" rx="1" fill="#85A480"/>
<rect x="6" y="12" width="2" height="24" rx="1" fill="#85A480"/>
<rect x="79" y="6" width="2" height="35" rx="1" fill="#85A480"/>
<rect x="42" y="9" width="2" height="29" rx="1" fill="#85A480"/>
<rect x="115" y="14" width="2" height="19" rx="1" fill="#85A480"/>
<rect x="21" y="11" width="2" height="25" rx="1" fill="#85A480"/>
<rect x="94" y="16" width="2" height="15" rx="1" fill="#85A480"/>
<rect x="57" y="3" width="2" height="41" rx="1" fill="#85A480"/>
<rect x="9" y="15" width="2" height="18" rx="1" fill="#85A480"/>
<rect x="82" y="14" width="2" height="19" rx="1" fill="#85A480"/>
<rect x="45" y="11" width="2" height="25" rx="1" fill="#85A480"/>
<rect x="118" y="19" width="2" height="10" rx="1" fill="#85A480"/>
<rect x="24" y="18" width="2" height="11" rx="1" fill="#85A480"/>
<rect x="97" y="11" width="2" height="25" rx="1" fill="#85A480"/>
<rect x="60" y="6" width="2" height="35" rx="1" fill="#85A480"/>
<rect x="12" y="19" width="2" height="10" rx="1" fill="#85A480"/>
<rect x="85" y="12" width="2" height="23" rx="1" fill="#85A480"/>
<rect x="48" y="13" width="2" height="21" rx="1" fill="#85A480"/>
<rect x="121" y="17" width="2" height="13" rx="1" fill="#85A480"/>
<rect x="27" y="4" width="2" height="40" rx="1" fill="#85A480"/>
<rect x="100" y="6" width="2" height="35" rx="1" fill="#85A480"/>
<rect x="63" width="2" height="47" rx="1" fill="#85A480"/>
<rect x="15" y="15" width="2" height="17" rx="1" fill="#85A480"/>
<rect x="88" y="15" width="2" height="17" rx="1" fill="#85A480"/>
<rect x="51" y="19" width="2" height="10" rx="1" fill="#85A480"/>
<rect x="124" y="20" width="2" height="7" rx="1" fill="#85A480"/>
<rect x="30" y="1" width="2" height="46" rx="1" fill="#85A480"/>
<rect x="103" y="12" width="2" height="24" rx="1" fill="#85A480"/>
<rect x="66" y="14" width="2" height="19" rx="1" fill="#85A480"/>
</svg>
