<svg width="10" height="10" viewBox="0 0 10 10" fill="none" xmlns="http://www.w3.org/2000/svg">
<path fill-rule="evenodd" clip-rule="evenodd" d="M0.28723 0.0747311C-0.0164125 0.227919 -0.00968061 0.108348 0.0058499 5.07536L0.0203174 9.70997L0.154718 9.84408C0.286757 9.97578 0.316342 9.97843 1.83697 9.99574C2.68826 10.0054 3.44559 9.99809 3.51988 9.97949C3.59417 9.96088 3.70743 9.89341 3.77156 9.82948C3.8857 9.71568 3.88818 9.61465 3.88818 5.03762C3.88818 2.46604 3.87165 0.319113 3.85151 0.266716C3.75998 0.0288688 3.5484 -0.000920915 1.9572 2.10552e-05C0.853828 0.000609786 0.393286 0.0212743 0.28723 0.0747311ZM6.39787 0.0656647C6.12339 0.218735 6.13213 0.0564211 6.13213 5.0146C6.13213 9.61453 6.13456 9.71562 6.24876 9.82948C6.31289 9.89341 6.42615 9.96088 6.50044 9.97949C6.57472 9.99809 7.33206 10.0054 8.18334 9.99574C9.70403 9.97843 9.73356 9.97578 9.8656 9.84402L10 9.70991V5.00335V0.296801L9.8656 0.162688C9.73309 0.0304585 9.70858 0.028398 8.12358 0.0141507C7.02239 0.00431889 6.47877 0.020509 6.39787 0.0656647Z" fill="#C3E0BF"/>
</svg>
